<?xml version="1.0" encoding="UTF-8" standalone="no"?>
<!-- Created with Inkscape (http://www.inkscape.org/) -->

<svg
   xmlns:dc="http://purl.org/dc/elements/1.1/"
   xmlns:cc="http://creativecommons.org/ns#"
   xmlns:rdf="http://www.w3.org/1999/02/22-rdf-syntax-ns#"
   xmlns:svg="http://www.w3.org/2000/svg"
   xmlns="http://www.w3.org/2000/svg"
   xmlns:xlink="http://www.w3.org/1999/xlink"
   xmlns:sodipodi="http://sodipodi.sourceforge.net/DTD/sodipodi-0.dtd"
   xmlns:inkscape="http://www.inkscape.org/namespaces/inkscape"
   width="1600"
   height="500"
   id="svg2"
   version="1.1"
   inkscape:version="0.48.4 r9939"
   sodipodi:docname="logo.svg"
   inkscape:export-filename="/home/victor/Data/sites/Etudiante_Victore.ru/images/logo1.png"
   inkscape:export-xdpi="90"
   inkscape:export-ydpi="90">
  <defs
     id="defs4">
    <inkscape:path-effect
       effect="spiro"
       id="path-effect3225"
       is_visible="true" />
    <inkscape:path-effect
       effect="spiro"
       id="path-effect3191"
       is_visible="true" />
    <inkscape:path-effect
       effect="spiro"
       id="path-effect3187"
       is_visible="true" />
    <inkscape:path-effect
       effect="spiro"
       id="path-effect3175"
       is_visible="true" />
    <inkscape:path-effect
       effect="spiro"
       id="path-effect3171"
       is_visible="true" />
    <inkscape:path-effect
       effect="spiro"
       id="path-effect3167"
       is_visible="true" />
    <inkscape:path-effect
       effect="spiro"
       id="path-effect3143"
       is_visible="true" />
    <inkscape:path-effect
       effect="spiro"
       id="path-effect3139"
       is_visible="true" />
    <linearGradient
       inkscape:collect="always"
       id="linearGradient4084">
      <stop
         style="stop-color:#e9e9ff;stop-opacity:1;"
         offset="0"
         id="stop4086" />
      <stop
         style="stop-color:#0000ff;stop-opacity:1"
         offset="1"
         id="stop4088" />
    </linearGradient>
    <linearGradient
       inkscape:collect="always"
       id="linearGradient4060">
      <stop
         style="stop-color:#00cccc;stop-opacity:1;"
         offset="0"
         id="stop4062" />
      <stop
         style="stop-color:#3300ff;stop-opacity:1"
         offset="1"
         id="stop4064" />
    </linearGradient>
    <linearGradient
       inkscape:collect="always"
       id="linearGradient3962">
      <stop
         style="stop-color:#00cccc;stop-opacity:1;"
         offset="0"
         id="stop3964" />
      <stop
         style="stop-color:#0000ff;stop-opacity:1"
         offset="1"
         id="stop3966" />
    </linearGradient>
    <linearGradient
       inkscape:collect="always"
       id="linearGradient3954">
      <stop
         style="stop-color:#00cccc;stop-opacity:1;"
         offset="0"
         id="stop3956" />
      <stop
         style="stop-color:#0000ff;stop-opacity:1"
         offset="1"
         id="stop3958" />
    </linearGradient>
    <linearGradient
       inkscape:collect="always"
       id="linearGradient3105">
      <stop
         style="stop-color:#0000ff;stop-opacity:1;"
         offset="0"
         id="stop3107" />
      <stop
         style="stop-color:#0000ff;stop-opacity:0;"
         offset="1"
         id="stop3109" />
    </linearGradient>
    <linearGradient
       inkscape:collect="always"
       id="linearGradient3097">
      <stop
         style="stop-color:#0000ff;stop-opacity:1;"
         offset="0"
         id="stop3099" />
      <stop
         style="stop-color:#0000ff;stop-opacity:0;"
         offset="1"
         id="stop3101" />
    </linearGradient>
    <inkscape:perspective
       sodipodi:type="inkscape:persp3d"
       inkscape:vp_x="1573.8177 : 467.59225 : 1"
       inkscape:vp_y="0 : 1000 : 0"
       inkscape:vp_z="26.886186 : 457.49072 : 1"
       inkscape:persp3d-origin="372.04724 : 350.78739 : 1"
       id="perspective2985" />
    <inkscape:perspective
       sodipodi:type="inkscape:persp3d"
       inkscape:vp_x="-607.10971 : 255.72897 : 1"
       inkscape:vp_y="0.83822117 : -1335.8451 : 0"
       inkscape:vp_z="1660.0199 : 259.99279 : 1"
       inkscape:persp3d-origin="1370.4074 : 410.44611 : 1"
       id="perspective2985-9" />
    <linearGradient
       inkscape:collect="always"
       xlink:href="#linearGradient3097"
       id="linearGradient3103"
       x1="6.0609155"
       y1="128.26387"
       x2="442.44684"
       y2="89.878075"
       gradientUnits="userSpaceOnUse" />
    <linearGradient
       inkscape:collect="always"
       xlink:href="#linearGradient3105"
       id="linearGradient3111"
       x1="12.121831"
       y1="388.88321"
       x2="458.60925"
       y2="409.08627"
       gradientUnits="userSpaceOnUse" />
    <linearGradient
       inkscape:collect="always"
       xlink:href="#linearGradient3097"
       id="linearGradient3181"
       x1="622.25397"
       y1="257.56339"
       x2="798.02051"
       y2="257.56339"
       gradientUnits="userSpaceOnUse" />
    <linearGradient
       inkscape:collect="always"
       xlink:href="#linearGradient3954"
       id="linearGradient3960"
       x1="-1.4285715"
       y1="673.79077"
       x2="-1.4285836"
       y2="948.07648"
       gradientUnits="userSpaceOnUse"
       gradientTransform="matrix(1.09209,0,0,1.09209,296.11554,-19.857195)" />
    <linearGradient
       inkscape:collect="always"
       xlink:href="#linearGradient3962"
       id="linearGradient3968"
       x1="1181.4286"
       y1="690.93359"
       x2="1.4285421"
       y2="675.21936"
       gradientUnits="userSpaceOnUse"
       gradientTransform="matrix(-1.002527,6.3099457e-4,-6.3003128e-4,-1.0040598,1603.3613,1611.0383)" />
    <linearGradient
       inkscape:collect="always"
       xlink:href="#linearGradient4060"
       id="linearGradient4066"
       x1="1171.777"
       y1="929.1236"
       x2="8.0812254"
       y2="943.26569"
       gradientUnits="userSpaceOnUse"
       gradientTransform="matrix(-1.002527,6.3099457e-4,-6.3003128e-4,-1.0040598,1607.4108,1609.0073)" />
    <linearGradient
       inkscape:collect="always"
       xlink:href="#linearGradient4084"
       id="linearGradient4090"
       x1="1276.8328"
       y1="815.98651"
       x2="1353.6044"
       y2="813.96619"
       gradientUnits="userSpaceOnUse"
       gradientTransform="matrix(-1.002527,6.3099457e-4,-6.3003128e-4,-1.0040598,1607.4108,1609.0073)" />
  </defs>
  <sodipodi:namedview
     id="base"
     pagecolor="#ffffff"
     bordercolor="#666666"
     borderopacity="1.0"
     inkscape:pageopacity="0.0"
     inkscape:pageshadow="2"
     inkscape:zoom="0.49497475"
     inkscape:cx="740.42394"
     inkscape:cy="274.16032"
     inkscape:document-units="px"
     inkscape:current-layer="layer1"
     showgrid="false"
     showguides="true"
     inkscape:guide-bbox="true"
     height="300px"
     inkscape:window-width="1366"
     inkscape:window-height="744"
     inkscape:window-x="0"
     inkscape:window-y="24"
     inkscape:window-maximized="1"
     inkscape:snap-grids="true">
    <inkscape:grid
       type="xygrid"
       id="grid3998"
       empspacing="5"
       visible="true"
       enabled="true"
       snapvisiblegridlinesonly="true" />
  </sodipodi:namedview>
  <metadata
     id="metadata7">
    <rdf:RDF>
      <cc:Work
         rdf:about="">
        <dc:format>image/svg+xml</dc:format>
        <dc:type
           rdf:resource="http://purl.org/dc/dcmitype/StillImage" />
        <dc:title></dc:title>
      </cc:Work>
    </rdf:RDF>
  </metadata>
  <g
     inkscape:label="Layer 1"
     inkscape:groupmode="layer"
     id="layer1"
     transform="translate(0,-552.36218)">
    <g
       sodipodi:type="inkscape:box3d"
       style="fill:#808000;stroke:#000000"
       id="g2987"
       inkscape:perspectiveID="#perspective2985-9"
       inkscape:corner0="2.2564152 : 0.29159369 : 0 : 1"
       inkscape:corner7="-0.084356318 : -0.051005473 : 0.79743573 : 1"
       inkscape:export-filename="/home/victor/Data/sites/Etudiante_Victore.ru/images/logo.png"
       inkscape:export-xdpi="90"
       inkscape:export-ydpi="90">
      <path
         sodipodi:type="inkscape:box3dside"
         id="path2993"
         style="fill:#8686bf;fill-rule:evenodd;stroke:none"
         inkscape:box3dsidetype="3"
         d="M 0.23345988,868.73914 1552.8588,1053.0723 1552.5452,553.24972 0.14527276,728.19828 z" />
      <path
         sodipodi:type="inkscape:box3dside"
         id="path2995"
         style="fill:#d7d7ff;fill-rule:evenodd;stroke:none"
         inkscape:box3dsidetype="14"
         d="m 1552.8588,1053.0723 -0.3136,-499.82258 50.0293,111.30983 0.1676,267.15598 z" />
      <path
         sodipodi:type="inkscape:box3dside"
         id="path2991"
         style="fill:url(#linearGradient3968);fill-opacity:1;fill-rule:evenodd;stroke:none"
         inkscape:box3dsidetype="5"
         d="M 0.23345988,868.73914 1552.8588,1053.0723 1602.7421,931.71553 326.73116,853.7164 z" />
      <path
         sodipodi:type="inkscape:box3dside"
         id="path2997"
         style="fill:url(#linearGradient4066);fill-opacity:1;fill-rule:evenodd;stroke:none"
         inkscape:box3dsidetype="13"
         d="M 0.14527276,728.19828 1552.5452,553.24972 1602.5745,664.55955 326.66032,740.82142 z" />
      <path
         sodipodi:type="inkscape:box3dside"
         id="path2989"
         style="fill:url(#linearGradient4090);fill-opacity:1;fill-rule:evenodd;stroke:none"
         inkscape:box3dsidetype="6"
         d="M 0.23345988,868.73914 0.14527276,728.19828 326.66032,740.82142 l 0.0708,112.89498 z" />
      <path
         sodipodi:type="inkscape:box3dside"
         id="path2999"
         style="fill:#e9e9ff;fill-rule:evenodd;stroke:none"
         inkscape:box3dsidetype="11"
         d="M 326.73116,853.7164 1602.7421,931.71553 1602.5745,664.55955 326.66032,740.82142 z" />
    </g>
    <flowRoot
       xml:space="preserve"
       id="flowRoot3191"
       style="font-size:40px;font-style:normal;font-weight:normal;line-height:125%;letter-spacing:0px;word-spacing:0px;fill:#000000;fill-opacity:1;stroke:none;font-family:Sans"><flowRegion
         id="flowRegion3193"><rect
           id="rect3195"
           width="28.284271"
           height="52.527931"
           x="92.934036"
           y="97.95929" /></flowRegion><flowPara
         id="flowPara3197" /></flowRoot>    <flowRoot
       xml:space="preserve"
       id="flowRoot3199"
       style="font-size:40px;font-style:normal;font-weight:normal;line-height:125%;letter-spacing:0px;word-spacing:0px;fill:#000000;fill-opacity:1;stroke:none;font-family:Sans"><flowRegion
         id="flowRegion3201"><rect
           id="rect3203"
           width="46.467018"
           height="115.15739"
           x="14.142136"
           y="192.91362" /></flowRegion><flowPara
         id="flowPara3205" /></flowRoot>    <path
       style="fill:none;stroke:#000000;stroke-width:1px;stroke-linecap:butt;stroke-linejoin:miter;stroke-opacity:1"
       d="M -2.0203051,555.36713 C 1602.1019,553.34683 1600.0816,553.34683 1600.0816,553.34683 l 2.0203,501.03567 -1604.1222051,-2.0203 z"
       id="path3020"
       inkscape:connector-curvature="0" />
    <path
       style="fill:#00cccc;stroke:#00ccff;stroke-width:0.50507629"
       d="m 13.567459,499.16356 c 0.763928,-0.11572 2.013992,-0.11572 2.77792,0 0.763927,0.11573 0.138896,0.21041 -1.38896,0.21041 -1.527856,0 -2.152888,-0.0947 -1.38896,-0.21041 z"
       id="path3036"
       inkscape:connector-curvature="0"
       transform="translate(0,552.36218)" />
    <path
       style="fill:#00cccc;stroke:#00ccff;stroke-width:0.50507629"
       d="m 18.122758,499.17531 c 0.491423,-0.12806 1.173276,-0.11964 1.515229,0.0187 0.341953,0.13835 -0.06012,0.24312 -0.893496,0.23283 -0.833376,-0.0103 -1.113156,-0.12349 -0.621733,-0.25155 z"
       id="path3038"
       inkscape:connector-curvature="0"
       transform="translate(0,552.36218)" />
    <path
       style="fill:#00cccc;stroke:#00ccff;stroke-width:0.50507629"
       d="m 5.9982598,499.16289 c 0.7677474,-0.11609 1.904169,-0.11299 2.5253813,0.007 0.6212121,0.11988 -0.00694,0.21487 -1.3959044,0.21108 -1.3889597,-0.004 -1.8972243,-0.10189 -1.1294769,-0.21798 z"
       id="path3134"
       inkscape:connector-curvature="0"
       transform="translate(0,552.36218)" />
    <path
       style="fill:#00cccc;stroke:#00ccff;stroke-width:0.50507629"
       d="m 2.4557812,499.17716 c 0.4861359,-0.12704 1.2816311,-0.12704 1.767767,0 0.4861359,0.12704 0.088388,0.23098 -0.8838835,0.23098 -0.9722718,0 -1.3700194,-0.10394 -0.8838835,-0.23098 z"
       id="path3136"
       inkscape:connector-curvature="0"
       transform="translate(0,552.36218)" />
    <path
       style="fill:#00cccc;stroke:#00ccff;stroke-width:0.50507629"
       d="m -0.5746764,499.17716 c 0.48613591,-0.12704 1.28163103,-0.12704 1.7677669,0 0.486136,0.12704 0.088388,0.23098 -0.88388343,0.23098 -0.97227182,0 -1.37001937,-0.10394 -0.88388347,-0.23098 z"
       id="path3138"
       inkscape:connector-curvature="0"
       transform="translate(0,552.36218)" />
    <path
       style="fill:#00cccc;stroke:#00ccff;stroke-width:0.50507629"
       d="m -1.0137777,284.86791 0.0546795,-115.40993 0.25534545,110.86424 0.25534545,110.86424 1.1364216,2.12646 c 1.3813832,2.58482 1.3850759,2.64222 0.14917342,2.31903 -1.00317945,-0.26234 -1.19128496,0.11053 -1.70675959,3.3832 -0.10938684,0.69448 -0.17427943,-50.67178 -0.14420583,-114.14724 z"
       id="path3142"
       inkscape:connector-curvature="0"
       transform="translate(0,552.36218)" />
    <path
       style="fill:#00cccc;stroke:#00ccff;stroke-width:0.50507629"
       d="m -1.0898256,144.83551 c -0.063908,-13.54235 0.054267,-24.61898 0.26261107,-24.61473 0.20834396,0.004 0.68637859,0.20263 1.06229924,0.44084 0.57460522,0.36411 0.57460522,0.62439 0,1.63377 -0.53560889,0.94087 -0.74031166,6.17291 -0.94610311,24.18162 l -0.26261113,22.98097 -0.11619607,-24.62247 z"
       id="path3144"
       inkscape:connector-curvature="0"
       transform="translate(0,552.36218)" />
    <path
       style="fill:#00cccc;stroke:#00ccff;stroke-width:0.50507629"
       d="m 1581.5617,1.6480236 c 3.264,-0.087977 8.6052,-0.087977 11.8693,0 3.264,0.087977 0.5934,0.159959 -5.9347,0.159959 -6.5281,0 -9.1987,-0.071982 -5.9346,-0.159959 z"
       id="path3148"
       inkscape:connector-curvature="0"
       transform="translate(0,552.36218)" />
    <path
       style="fill:#00cccc;stroke:#00ccff;stroke-width:0.17857143"
       d=""
       id="path3156"
       inkscape:connector-curvature="0"
       transform="translate(0,552.36218)" />
    <path
       style="fill:#00cccc;stroke:#00ccff;stroke-width:0.17857143"
       d=""
       id="path3158"
       inkscape:connector-curvature="0"
       transform="translate(0,552.36218)" />
    <path
       style="fill:#00cccc;stroke:#00ccff;stroke-width:0.17857143"
       d=""
       id="path3160"
       inkscape:connector-curvature="0"
       transform="translate(0,552.36218)" />
    <path
       style="fill:#00cccc;stroke:#00ccff;stroke-width:0.17857143"
       d=""
       id="path3164"
       inkscape:connector-curvature="0"
       transform="translate(0,552.36218)" />
    <path
       style="fill:#00cccc;stroke:#00ccff;stroke-width:0.17857143"
       d=""
       id="path3166"
       inkscape:connector-curvature="0"
       transform="translate(0,552.36218)" />
    <path
       style="fill:#00cccc;stroke:#00ccff;stroke-width:0.17857143"
       d=""
       id="path3170"
       inkscape:connector-curvature="0"
       transform="translate(0,552.36218)" />
    <flowRoot
       xml:space="preserve"
       id="flowRoot3174"
       style="fill:black;stroke:none;stroke-opacity:1;stroke-width:1px;stroke-linejoin:miter;stroke-linecap:butt;fill-opacity:1;font-family:Sans;font-style:normal;font-weight:normal;font-size:40px;line-height:125%;letter-spacing:0px;word-spacing:0px"><flowRegion
         id="flowRegion3176"><rect
           id="rect3178"
           width="1268.5714"
           height="107.14285"
           x="1.4285715"
           y="204.28572" /></flowRegion><flowPara
         id="flowPara3180" /></flowRoot>    <text
       xml:space="preserve"
       style="font-size:157.26097107px;font-style:normal;font-weight:normal;line-height:125.99999905%;letter-spacing:0px;word-spacing:0px;fill:url(#linearGradient3960);fill-opacity:1;stroke:none;font-family:Sans"
       x="303.9162"
       y="904.75854"
       id="text3950"
       sodipodi:linespacing="126%"
       transform="scale(1.09209,0.91567543)"><tspan
         sodipodi:role="line"
         id="tspan3952"
         x="303.9162"
         y="904.75854"
         style="font-size:118.366539px;fill:url(#linearGradient3960);fill-opacity:1">Найти сотрудника</tspan></text>
    <path
       style="fill:#000000;stroke:#00ccff;stroke-width:0.50507629"
       d=""
       id="path3972"
       inkscape:connector-curvature="0"
       transform="translate(0,552.36218)" />
    <path
       style="fill:#000000;stroke:#00ccff;stroke-width:0.50507629"
       d="m 1189.0626,137.45765 c 0.1717,-0.27779 0.4124,-0.50507 0.5349,-0.50507 0.1225,0 0.2227,0.22728 0.2227,0.50507 0,0.2778 -0.2407,0.50508 -0.5349,0.50508 -0.2942,0 -0.3944,-0.22728 -0.2227,-0.50508 z"
       id="path3974"
       inkscape:connector-curvature="0"
       transform="translate(0,552.36218)" />
    <path
       style="fill:#000000;stroke:#00ccff;stroke-width:0.50507629"
       d=""
       id="path3976"
       inkscape:connector-curvature="0"
       transform="translate(0,552.36218)" />
    <path
       style="fill:#000000;stroke:#00ccff;stroke-width:0.50507629"
       d="m 1053.3233,121.97086 c 0.3473,-0.14011 0.9155,-0.14011 1.2627,0 0.3473,0.14012 0.063,0.25476 -0.6313,0.25476 -0.6945,0 -0.9786,-0.11464 -0.6314,-0.25476 z"
       id="path3980"
       inkscape:connector-curvature="0"
       transform="translate(0,552.36218)" />
    <path
       style="fill:#000000;stroke:#00ccff;stroke-width:0.50507629"
       d="m 1048.8092,121.45526 c 0.3646,-0.1459 0.8003,-0.12795 0.9681,0.0399 0.1678,0.16783 -0.1305,0.28721 -0.6629,0.26528 -0.5884,-0.0242 -0.7081,-0.14392 -0.3052,-0.30516 z"
       id="path3982"
       inkscape:connector-curvature="0"
       transform="translate(0,552.36218)" />
    <path
       style="fill:#000000;stroke:#00ccff;stroke-width:0.50507629"
       d="m 1045.2421,120.96071 c 0.3473,-0.14011 0.9155,-0.14011 1.2627,0 0.3473,0.14012 0.063,0.25475 -0.6313,0.25475 -0.6945,0 -0.9786,-0.11463 -0.6314,-0.25475 z"
       id="path3984"
       inkscape:connector-curvature="0"
       transform="translate(0,552.36218)" />
    <path
       style="fill:#000000;stroke:#00ccff;stroke-width:0.50507629"
       d=""
       id="path3988"
       inkscape:connector-curvature="0"
       transform="translate(0,552.36218)" />
    <path
       style="fill:#000000;stroke:#00ccff;stroke-width:0.50507629"
       d="m 1032.6468,119.43496 c 0.3646,-0.1459 0.8002,-0.12796 0.968,0.0399 0.1679,0.16784 -0.1304,0.28721 -0.6629,0.26528 -0.5883,-0.0242 -0.708,-0.14392 -0.3051,-0.30515 z"
       id="path3990"
       inkscape:connector-curvature="0"
       transform="translate(0,552.36218)" />
    <path
       style="fill:#000000;stroke:#00ccff;stroke-width:0.50507629"
       d="m 1026.8068,119.43182 c 0.4862,-0.12704 1.2817,-0.12704 1.7678,0 0.4861,0.12704 0.088,0.23099 -0.8839,0.23099 -0.9722,0 -1.37,-0.10395 -0.8839,-0.23099 z"
       id="path3992"
       inkscape:connector-curvature="0"
       transform="translate(0,552.36218)" />
    <path
       style="fill:#000000;stroke:#00ccff;stroke-width:0.50507629"
       d="m 1600.2101,199.58204 c 0,-0.69448 0.1147,-0.97859 0.2548,-0.63135 0.1401,0.34724 0.1401,0.91545 0,1.26269 -0.1401,0.34724 -0.2548,0.0631 -0.2548,-0.63134 z"
       id="path3998"
       inkscape:connector-curvature="0"
       transform="translate(0,552.36218)" />
    <path
       style="fill:#000000;stroke:#00ccff;stroke-width:0.50507629"
       d="m 1599.7527,196.80412 c 0.01,-1.11117 0.109,-1.50627 0.2298,-0.878 0.1209,0.62827 0.1163,1.53741 -0.01,2.02031 -0.1265,0.48289 -0.2253,-0.0311 -0.2197,-1.14231 z"
       id="path4000"
       inkscape:connector-curvature="0"
       transform="translate(0,552.36218)" />
    <path
       style="fill:#000000;stroke:#00ccff;stroke-width:0.50507629"
       d="m 1599.7238,196.80412 c 0.01,-0.83338 0.1235,-1.11316 0.2515,-0.62174 0.1281,0.49143 0.1197,1.17328 -0.019,1.51523 -0.1383,0.34195 -0.2431,-0.0601 -0.2328,-0.89349 z"
       id="path4002"
       inkscape:connector-curvature="0"
       transform="translate(0,552.36218)" />
    <path
       style="fill:#1c1f24;stroke:#ffffff;stroke-width:0.50507628999999998;stroke-opacity:0"
       d="m 1599.7238,196.80412 c 0.01,-0.83338 0.1235,-1.11316 0.2515,-0.62174 0.1281,0.49143 0.1197,1.17328 -0.019,1.51523 -0.1383,0.34195 -0.2431,-0.0601 -0.2328,-0.89349 z"
       id="path4004"
       inkscape:connector-curvature="0"
       transform="translate(0,552.36218)" />
    <path
       style="fill:#1c1f24;stroke:#ffffff;stroke-width:0.50507629;stroke-opacity:0"
       d="m 1582.3265,184.09524 c 0.3472,-0.14011 0.9154,-0.14011 1.2627,0 0.3472,0.14012 0.063,0.25476 -0.6314,0.25476 -0.6945,0 -0.9786,-0.11464 -0.6313,-0.25476 z"
       id="path4006"
       inkscape:connector-curvature="0"
       transform="translate(0,552.36218)" />
    <path
       style="fill:#1c1f24;stroke:#ffffff;stroke-width:0.50507629;stroke-opacity:0"
       d="m 1600.8729,167.76223 c 0,-17.0842 0.063,-24.0732 0.1411,-15.5311 0.078,8.54211 0.078,22.52009 0,31.0622 -0.078,8.5421 -0.1411,1.5531 -0.1411,-15.5311 z"
       id="path4010"
       inkscape:connector-curvature="0"
       transform="translate(0,552.36218)" />
    <path
       style="fill:#1c1f24;stroke:#ffffff;stroke-width:0.50507629;stroke-opacity:0"
       d=""
       id="path4024"
       inkscape:connector-curvature="0"
       transform="translate(0,552.36218)" />
    <path
       style="fill:#1c1f24;stroke:#ffffff;stroke-width:0.50507629;stroke-opacity:0"
       d=""
       id="path4026"
       inkscape:connector-curvature="0"
       transform="translate(0,552.36218)" />
    <path
       style="fill:#1c1f24;stroke:#ffffff;stroke-width:0.50507629;stroke-opacity:0"
       d=""
       id="path4028"
       inkscape:connector-curvature="0"
       transform="translate(0,552.36218)" />
    <path
       style="fill:#1c1f24;stroke:#ffffff;stroke-width:0.50507629;stroke-opacity:0"
       d=""
       id="path4030"
       inkscape:connector-curvature="0"
       transform="translate(0,552.36218)" />
    <path
       style="fill:none;stroke:#000000;stroke-width:1px;stroke-linecap:butt;stroke-linejoin:miter;stroke-opacity:1"
       d="M 1600.0816,0.98464619 1602.1019,502.02031"
       id="path3137"
       inkscape:path-effect="#path-effect3139"
       inkscape:original-d="M 1600.0816,0.98464619 1602.1019,502.02031"
       inkscape:connector-curvature="0"
       transform="translate(0,552.36218)" />
    <path
       style="fill:none;stroke:#000000;stroke-width:1px;stroke-linecap:butt;stroke-linejoin:miter;stroke-opacity:1"
       d="m 1602.1019,502.02031 -1604.1222051,0 L 0,-1.0356589"
       id="path3141"
       inkscape:path-effect="#path-effect3143"
       inkscape:original-d="m 1602.1019,502.02031 -1604.1222051,0 L 0,-1.0356589"
       inkscape:connector-curvature="0"
       transform="translate(0,552.36218)" />
    <path
       style="fill:#00cccc;stroke:#ffffff;stroke-width:2.02030516;stroke-opacity:0"
       d="m 5.7702505,498.01631 -5.53700059,-0.82657 0.0281546,-89.7712 c 0.015485,-49.37416 0.45248026,-89.7712 0.97110019,-89.7712 1.4517721,0 1497.2527953,177.67339 1512.1715953,179.61791 7.3256,0.95482 -321.8523,1.682 -744.48245,1.64463 C 352.23373,498.87303 8.8156006,498.47092 5.7702505,498.01631 z"
       id="path3145"
       inkscape:connector-curvature="0"
       transform="translate(0,552.36218)" />
    <path
       style="fill:#00cccc;stroke:#ffffff;stroke-width:2.02030516;stroke-opacity:0"
       d="M 1.1401036,89.924269 C 1.8440153,43.569493 2.6013127,5.491356 2.8229869,5.3061862 3.044661,5.1210163 344.60708,4.4796608 761.85059,3.8809519 1179.0941,3.2822427 1518.6569,3.1796428 1516.4345,3.652952 1511.6853,4.664428 6.9581835,174.20568 2.7302421,174.20568 c -2.45435568,0 -2.6846351,-12.2054 -1.5901385,-84.281411 z"
       id="path3147"
       inkscape:connector-curvature="0"
       transform="translate(0,552.36218)" />
    <path
       style="fill:#00cccc;stroke:#ffffff;stroke-width:2.02030516;stroke-opacity:0"
       d="m 1576.5001,51.422 c -11.3683,-25.306646 -20.6696,-46.6713721 -20.6696,-47.4771681 0,-0.8057961 9.5459,-1.4650836 21.2132,-1.4650836 l 21.2132,0 0,47.4771697 c 0,26.112443 -0.2446,47.477169 -0.5436,47.477169 -0.299,0 -9.8449,-20.705438 -21.2132,-46.012087 z"
       id="path3149"
       inkscape:connector-curvature="0"
       transform="translate(0,552.36218)" />
    <path
       style="fill:#00cccc;stroke:#ffffff;stroke-width:2.02030516;stroke-opacity:0"
       d="m 1572.498,499.99202 c -9.1671,-0.37435 -16.6675,-1.37524 -16.6675,-2.22421 0,-0.84897 9.4608,-24.42169 21.024,-52.38383 11.5633,-27.96215 21.492,-52.00476 22.0639,-53.42804 0.5719,-1.42327 1.1116,22.64079 1.1993,53.4757 l 0.1595,56.06346 -5.5558,-0.41122 c -3.0558,-0.22617 -13.0563,-0.71751 -22.2234,-1.09186 z"
       id="path3151"
       inkscape:connector-curvature="0"
       transform="translate(0,552.36218)" />
    <path
       style="fill:none;stroke:#000000;stroke-width:1px;stroke-linecap:butt;stroke-linejoin:miter;stroke-opacity:1"
       d="M 1602.1019,109.07097 1551.5943,-1.0356592 C 1250.9296,33.519442 950.24075,67.864639 649.52808,101.9999 432.021,126.69012 214.50145,151.2705 -3.0304576,175.74104 l 2.0203051,140.4112 844.4875225,101.01525"
       id="path3165"
       inkscape:path-effect="#path-effect3167"
       inkscape:original-d="M 1602.1019,109.07097 1551.5943,-1.0356592 649.52808,101.9999 -3.0304576,175.74104 -1.0101525,316.15224 843.47737,417.16749"
       inkscape:connector-curvature="0"
       transform="translate(0,552.36218)" />
    <path
       style="fill:none;stroke:#000000;stroke-width:1px;stroke-linecap:butt;stroke-linejoin:miter;stroke-opacity:1"
       d="M -1.0101525,315.14209 0,315.14209"
       id="path3169"
       inkscape:path-effect="#path-effect3171"
       inkscape:original-d="M -1.0101525,315.14209 0,315.14209"
       inkscape:connector-curvature="0"
       transform="translate(0,552.36218)" />
    <path
       style="fill:none;stroke:#000000;stroke-width:1px;stroke-linecap:butt;stroke-linejoin:miter;stroke-opacity:1"
       d="M 14.142136,318.17254 235.36554,344.43651"
       id="path3173"
       inkscape:path-effect="#path-effect3175"
       inkscape:original-d="M 14.142136,318.17254 235.36554,344.43651"
       inkscape:connector-curvature="0"
       transform="translate(0,552.36218)" />
    <path
       style="fill:none;stroke:#000000;stroke-width:1px;stroke-linecap:butt;stroke-linejoin:miter;stroke-opacity:1"
       d="M 843.47737,417.16749 1551.5943,501.01015 1601.0918,380.802"
       id="path3185"
       inkscape:path-effect="#path-effect3187"
       inkscape:original-d="M 843.47737,417.16749 1551.5943,501.01015 1601.0918,380.802"
       inkscape:connector-curvature="0"
       transform="translate(0,552.36218)" />
    <path
       style="fill:none;stroke:#000000;stroke-width:1px;stroke-linecap:butt;stroke-linejoin:miter;stroke-opacity:1"
       d="m 1600.0816,110.08112 1.0102,269.71073"
       id="path3189"
       inkscape:path-effect="#path-effect3191"
       inkscape:original-d="m 1600.0816,110.08112 1.0102,269.71073"
       inkscape:connector-curvature="0"
       transform="translate(0,552.36218)" />
    <path
       style="fill:#00cccc;fill-opacity:1;stroke:#ffffff;stroke-width:0.17857143;stroke-opacity:0"
       d="m 1598.6714,100.17314 c -0.9552,-2.075108 -1.101,-2.518326 -0.9323,-2.833681 0.3705,-0.692232 0.5372,-18.236943 0.542,-57.057757 l 0,-38.0192056 -14.9553,0.1144851 c -14.3561,0.1098974 -19.5529,0.2547458 -23.6161,0.6582472 -2.1181,0.2103362 -3.7207,0.5201722 -3.8605,0.7463597 -0.052,0.083789 0.044,0.5724132 0.2129,1.0858315 0.4618,1.404301 4.3989,10.6062361 9.4004,21.9706481 2.4555,5.579366 4.428,10.180855 4.3833,10.22553 -0.045,0.04467 -3.7394,-7.89526 -8.2105,-17.644303 l -8.1292,-17.7255303 13.228,-0.045797 c 11.6296,-0.040263 13.2462,-0.013292 13.3785,0.2232143 0.2268,0.4052841 14.5556,0.4064079 14.7111,0.00115 0.084,-0.2189301 0.5233,-0.2678571 2.4051,-0.2678571 l 2.3023,0 -5e-4,7.6339285 c -4e-4,4.1986606 0.087,26.9062856 0.1934,50.4613876 0.1066,23.555101 0.1672,42.851249 0.1345,42.880329 -0.033,0.0291 -0.569,-1.05406 -1.1918,-2.40698 l -10e-5,0 z"
       id="path3203"
       inkscape:connector-curvature="0"
       transform="translate(0,552.36218)" />
    <path
       style="fill:#00cccc;fill-opacity:1;stroke:#ffffff;stroke-width:0.17857143;stroke-opacity:0"
       d="m 1372.3484,3.2562783 -15.1339,-0.046673 0,-0.603107 0,-0.603107 6.8304,-0.112404 c 6.2441,-0.1027571 159.0814,-0.2523577 158.2589,-0.1549075 -0.1964,0.023273 -3.5322,0.4049695 -7.4128,0.8482143 l -7.0556,0.8058996 -60.1765,-0.043621 c -33.0971,-0.023991 -66.9868,-0.064624 -75.3105,-0.090294 z"
       id="path3205"
       inkscape:connector-curvature="0"
       transform="translate(0,552.36218)" />
    <path
       style="fill:#00cccc;fill-opacity:1;stroke:#ffffff;stroke-width:0.17857143;stroke-opacity:0"
       d="m 787.06186,3.2616257 0,-0.5428803 10.9375,-0.1073407 c 6.01563,-0.059037 60.39732,-0.1490586 120.84821,-0.2000472 60.4509,-0.050989 138.81923,-0.1455578 174.15183,-0.2101536 l 64.241,-0.1174469 0,0.6245884 0,0.6245884 -112.5446,0.1179586 c -61.89957,0.064877 -145.18974,0.170981 -185.0893,0.2357861 l -72.54464,0.1178274 0,-0.5428802 z"
       id="path3207"
       inkscape:connector-curvature="0"
       transform="translate(0,552.36218)" />
    <path
       style="fill:#00cccc;fill-opacity:1;stroke:#ffffff;stroke-width:0.17857143;stroke-opacity:0"
       d="m 1277.5767,3.2568424 c 1.0612,-0.031625 2.7487,-0.031506 3.75,2.643e-4 1.0014,0.031772 0.1332,0.057647 -1.9293,0.057501 -2.0625,-1.457e-4 -2.8818,-0.02614 -1.8207,-0.057765 z"
       id="path3209"
       inkscape:connector-curvature="0"
       transform="translate(0,552.36218)" />
    <path
       style="fill:#00cccc;fill-opacity:1;stroke:#ffffff;stroke-width:0.17857143;stroke-opacity:0"
       d="m 1278.0135,3.2719288 c 0.1227,-0.049538 0.3236,-0.049538 0.4464,0 0.1228,0.049538 0.022,0.090069 -0.2232,0.090069 -0.2456,0 -0.346,-0.040531 -0.2232,-0.090069 z"
       id="path3211"
       inkscape:connector-curvature="0"
       transform="translate(0,552.36218)" />
    <path
       style="fill:#00cccc;fill-opacity:1;stroke:#ffffff;stroke-width:0.17857143;stroke-opacity:0"
       d="m 1157.3438,2.7948467 0,-0.5953465 48.8839,-0.1189031 c 26.8862,-0.065397 71.846,-0.1189193 99.9108,-0.1189391 l 51.0267,-3.62e-5 0,0.5953103 0,0.5953102 -73.5267,0.1189515 c -40.4398,0.065423 -85.3996,0.1189622 -99.9108,0.1189754 l -26.3839,2.41e-5 0,-0.5953466 z"
       id="path3213"
       inkscape:connector-curvature="0"
       transform="translate(0,552.36218)" />
    <path
       style="fill:#00cccc;fill-opacity:1;stroke:#ffffff;stroke-width:0.17857143;stroke-opacity:0"
       d="m 518.9768,3.5074657 0,-0.6529867 36.11608,-1.81e-5 c 19.86383,-9.9e-6 80.17187,-0.053557 134.01785,-0.1189934 l 97.90179,-0.1189753 0,0.5374856 0,0.5374857 -43.4375,0.1170596 c -23.89063,0.064383 -84.19866,0.1699053 -134.01786,0.2344945 l -90.58036,0.1174349 0,-0.6529868 z"
       id="path3215"
       inkscape:connector-curvature="0"
       transform="translate(0,552.36218)" />
    <path
       style="fill:#00cccc;fill-opacity:1;stroke:#ffffff;stroke-width:0.17857143;stroke-opacity:0"
       d="m 243.34006,3.9759686 0,-0.719857 130.13392,-0.109171 c 71.57366,-0.060044 133.5692,-0.1434313 137.76786,-0.1853051 l 7.63393,-0.076134 0,0.5894138 0,0.5894137 -4.33036,0.1056278 c -2.38169,0.058095 -45.15178,0.1475253 -95.04464,0.1987334 -49.89286,0.051208 -109.93973,0.1457623 -133.4375,0.2101207 l -42.72321,0.117015 0,-0.7198572 z"
       id="path3217"
       inkscape:connector-curvature="0"
       transform="translate(0,552.36218)" />
    <path
       style="fill:#00cccc;fill-opacity:1;stroke:#ffffff;stroke-width:0.17857143;stroke-opacity:0"
       d="m 236.32067,4.6869067 c 0.51891,-0.036186 1.32248,-0.035806 1.78571,8.454e-4 0.46323,0.036651 0.0387,0.066258 -0.94349,0.065793 -0.98214,-4.649e-4 -1.36114,-0.030452 -0.84222,-0.066638 z"
       id="path3219"
       inkscape:connector-curvature="0"
       transform="translate(0,552.36218)" />
    <path
       style="fill:#00cccc;fill-opacity:1;stroke:#ffffff;stroke-width:0.17857143;stroke-opacity:0"
       d="m 58.323609,4.3306779 0,-0.717891 32.008928,-0.1149398 C 107.93745,3.4346302 149.56245,3.3644573 182.83255,3.3419074 l 60.49108,-0.041 0,0.6440051 -2e-5,0.644005 -46.02679,0.1147757 c -25.31473,0.063127 -66.93973,0.1665482 -92.5,0.2298257 l -46.473211,0.1150498 0,-0.7178909 z"
       id="path3221"
       inkscape:connector-curvature="0"
       transform="translate(0,552.36218)" />
    <path
       style="fill:none;stroke:#000000;stroke-width:1px;stroke-linecap:butt;stroke-linejoin:miter;stroke-opacity:1"
       d="m 58.214285,4.1071451 0,0"
       id="path3223"
       inkscape:path-effect="#path-effect3225"
       inkscape:original-d="m 58.214285,4.1071451 c -0.238095,0 -0.47619,0 0,0 z"
       inkscape:connector-curvature="0"
       transform="translate(0,552.36218)" />
    <path
       style="fill:#300bfc;fill-opacity:1;stroke:#ffffff;stroke-width:0.35714287;stroke-opacity:0"
       d=""
       id="path3450"
       inkscape:connector-curvature="0"
       transform="translate(0,552.36218)" />
    <path
       style="fill:#300bfc;fill-opacity:1;stroke:#ffffff;stroke-width:0.35714287;stroke-opacity:0"
       d=""
       id="path3452"
       inkscape:connector-curvature="0"
       transform="translate(0,552.36218)" />
    <path
       style="fill:#00cccc;fill-opacity:1;stroke:#ffffff;stroke-width:0.35714287000000000;stroke-opacity:0"
       d="m 1138.1324,47.047214 c 0.71,-0.130053 132.1355,-15.179915 294.6429,-33.740294 46.75,-5.3394363 88.0535,-10.078762 91.7857,-10.5318354 5.6982,-0.6917476 20.4593,-1.5165882 18.2143,-1.0178028 -1.3922,0.3093026 -403.4756,45.5172642 -404.4088,45.4694072 -0.6765,-0.0347 -0.7436,-0.08614 -0.2341,-0.179475 z"
       id="path3454"
       inkscape:connector-curvature="0"
       transform="translate(0,552.36218)" />
    <path
       style="fill:#00cccc;fill-opacity:1;stroke:#ffffff;stroke-width:0.35714287;stroke-opacity:0"
       d="m 1552.6847,500.75747 c 0.3199,-0.24554 11.239,-26.38947 24.2647,-58.09763 l 23.683,-57.6512 0.2346,5.68691 c 0.129,3.12781 0.3008,29.27174 0.3816,58.09763 0.1107,39.43097 0.045,52.41071 -0.2648,52.41071 -0.3075,0 -0.4734,-11.06372 -0.6548,-43.66071 -0.2207,-39.68619 -0.6568,-65.09709 -1.125,-65.56535 -0.098,-0.0983 -0.2793,-0.0781 -0.4023,0.0448 -0.2503,0.25035 -15.0888,36.11986 -27.88,67.3955 -13.3817,32.71925 -15.5355,38.26572 -15.0483,38.75286 0.8154,0.81543 9.3177,1.6407 25.4733,2.47256 l 8.9286,0.45973 -19.0862,0.0503 c -15.3331,0.0404 -18.9717,-0.0375 -18.5044,-0.39615 z"
       id="path3456"
       inkscape:connector-curvature="0"
       transform="translate(0,552.36218)" />
    <path
       style="fill:#00cccc;fill-opacity:1;stroke:#ffffff;stroke-width:0.35714287;stroke-opacity:0"
       d="m 1220.7217,500.93604 -130.9822,-0.0902 0,-0.83356 0,-0.83355 30.0591,-0.23739 c 16.5325,-0.13057 62.778,-0.2379 102.7678,-0.23851 89.9688,-0.001 265.1379,-0.65056 280.566,-1.03978 l 11.4286,-0.28832 15,1.73554 c 8.25,0.95455 15.3214,1.79424 15.7143,1.86597 0.727,0.13277 -89.8646,0.12156 -324.5536,-0.0401 z"
       id="path3458"
       inkscape:connector-curvature="0"
       transform="translate(0,552.36218)" />
    <path
       style="fill:#00cccc;fill-opacity:1;stroke:#ffffff;stroke-width:0.35714287;stroke-opacity:0"
       d=""
       id="path3460"
       inkscape:connector-curvature="0"
       transform="translate(0,552.36218)" />
    <path
       style="fill:#00cccc;fill-opacity:1;stroke:#ffffff;stroke-width:0.35714287;stroke-opacity:0"
       d="m 2.7236506,499.17199 c 0.34375,-0.0898 0.90625,-0.0898 1.25,0 0.34375,0.0898 0.0625,0.16333 -0.625,0.16333 -0.6875,0 -0.96875,-0.0735 -0.625,-0.16333 z"
       id="path3462"
       inkscape:connector-curvature="0"
       transform="translate(0,552.36218)"
       inkscape:export-filename="/home/victor/Data/sites/Etudiante_Victore.ru/images/logo1.png"
       inkscape:export-xdpi="90"
       inkscape:export-ydpi="90" />
  </g>
</svg>
